<svg id="Logo" xmlns="http://www.w3.org/2000/svg" width="70" height="70" viewBox="0 0 70 70">
  <defs>
    <style>
      .cls-1 {
        fill: #f63c3c;
      }

      .cls-2 {
        fill: #fff;
        fill-rule: evenodd;
      }
    </style>
  </defs>
  <rect id="BG" class="cls-1" width="70" height="70"/>
  <path id="SA_GE" data-name="SA GE" class="cls-2" d="M402.905,27.862a1.035,1.035,0,0,1-.7.163h-1.247a1.1,1.1,0,0,1-.713-0.163,0.969,0.969,0,0,1-.178-0.7V24.846h-2.7v2.733q0,2.615,2.763,2.614h2.882q2.791,0,2.792-2.614V22.232q0-2.613-2.733-2.614H400.9a1.1,1.1,0,0,1-.713-0.164,0.972,0.972,0,0,1-.178-0.7V14.627a0.976,0.976,0,0,1,.178-0.7,1.107,1.107,0,0,1,.713-0.163h1.248a1.1,1.1,0,0,1,.713.163,0.971,0.971,0,0,1,.178.7v2.317h2.7V14.211q0-2.614-2.763-2.614h-2.911q-2.763,0-2.763,2.614v4.9q0,2.644,2.7,2.644h2.2a1.041,1.041,0,0,1,.7.163,1.04,1.04,0,0,1,.163.7v4.545A1.039,1.039,0,0,1,402.905,27.862Zm14.007-13.948,1.694,9.8h-3.239Zm5.5,16.279-3.535-18.6h-3.892l-3.3,18.6h2.674l0.683-4.308h3.922l0.743,4.308h2.7Zm-16.429,6.3q0-2.613-2.762-2.614h-3.179q-2.763,0-2.763,2.614V49.861q0,2.644,2.763,2.644h3.179q2.763,0,2.762-2.644V42.909h-4.188v2.079h1.485v4.545a0.968,0.968,0,0,1-.178.7,1.1,1.1,0,0,1-.713.164H400.87a1.1,1.1,0,0,1-.713-0.164,0.968,0.968,0,0,1-.179-0.7V36.848a0.969,0.969,0,0,1,.179-0.7,1.1,1.1,0,0,1,.713-0.163h1.515a1.106,1.106,0,0,1,.713.163,0.97,0.97,0,0,1,.178.7v2.466h2.7V36.492Zm9.893,7.457h4.278V41.78h-4.278V36.046h5.17V33.878h-7.873v18.6h8.081V50.306h-5.378V43.949ZM397.438,55.465h23.767v2.377H397.438V55.465Z" transform="translate(-375)"/>
</svg>
